<?xml version="1.0" encoding="UTF-8" ?>
<!DOCTYPE svg PUBLIC "-//W3C//DTD SVG 1.1//EN" "http://www.w3.org/Graphics/SVG/1.1/DTD/svg11.dtd">
<svg width="1024pt" height="143pt" viewBox="0 0 1024 143" version="1.1" xmlns="http://www.w3.org/2000/svg">
<g id="#007736ff">
<path fill="#007736" opacity="1.00" d=" M 171.97 0.00 L 183.04 0.00 C 203.91 1.76 223.03 14.67 233.49 32.65 L 233.55 32.75 C 227.06 43.09 224.12 55.17 222.85 67.19 C 221.68 52.08 213.59 37.38 200.63 29.27 C 189.92 22.34 176.03 20.66 164.00 24.92 C 148.01 30.33 136.57 45.33 133.44 61.65 L 132.63 59.94 C 132.66 46.31 132.47 32.67 132.73 19.05 C 143.04 8.33 157.22 1.62 171.97 0.00 Z" />
</g>
<g id="#cab400ff">
<path fill="#cab400" opacity="1.00" d=" M 283.98 0.00 L 294.55 0.00 C 309.67 1.41 324.11 8.41 334.66 19.32 C 348.10 32.91 355.48 52.01 355.47 71.06 C 355.48 86.70 355.50 102.34 355.46 117.98 C 355.35 123.38 350.41 128.20 344.97 127.95 C 339.48 128.22 334.48 123.33 334.44 117.88 C 334.38 102.25 334.45 86.63 334.41 71.00 C 334.39 58.26 329.51 45.50 320.65 36.30 C 312.31 27.47 300.23 22.15 288.03 22.61 C 276.04 22.86 264.47 28.65 256.61 37.62 C 249.34 45.79 245.04 56.43 244.20 67.31 C 243.06 55.23 240.03 43.13 233.55 32.75 L 233.49 32.65 C 244.08 14.74 263.07 1.78 283.98 0.00 Z" />
</g>
<g id="#3a4e93ff">
<path fill="#3a4e93" opacity="1.00" d=" M 0.00 14.57 C 0.27 9.28 4.64 4.49 10.02 4.27 C 15.57 3.77 20.86 8.40 21.19 13.94 C 21.30 33.63 21.17 53.32 21.25 73.00 C 21.60 91.45 32.81 109.72 50.10 116.83 C 63.61 122.66 79.99 120.52 91.72 111.71 C 103.16 103.45 110.02 89.93 111.48 76.03 C 112.85 87.87 115.85 99.70 122.15 109.95 C 117.40 117.95 111.07 125.02 103.56 130.53 C 90.09 140.55 72.50 144.90 55.93 141.96 C 38.55 139.10 22.97 128.34 13.12 113.87 C 4.93 102.14 0.82 87.97 0.00 73.78 L 0.00 14.57 Z" />
<path fill="#3a4e93" opacity="1.00" d=" M 115.00 7.01 C 119.11 3.02 126.43 3.46 130.06 7.88 C 132.93 10.91 132.77 15.30 132.62 19.17 C 122.71 29.29 115.83 42.33 113.16 56.25 C 112.77 58.20 112.55 60.22 111.64 62.02 C 111.47 46.35 111.60 30.67 111.57 15.00 C 111.49 12.01 112.77 9.01 115.00 7.01 Z" />
</g>
<g id="#00ababff">
<path fill="#00abab" opacity="1.00" d=" M 132.62 19.17 L 132.73 19.05 C 132.47 32.67 132.66 46.31 132.63 59.94 L 133.44 61.65 C 132.31 67.05 132.87 72.60 132.34 78.05 C 131.38 89.26 127.94 100.29 122.15 109.95 C 115.85 99.70 112.85 87.87 111.48 76.03 C 111.54 71.36 111.69 66.69 111.64 62.02 C 112.55 60.22 112.77 58.20 113.16 56.25 C 115.83 42.33 122.71 29.29 132.62 19.17 Z" />
</g>
<g id="#66b82eff">
<path fill="#66b82e" opacity="1.00" d=" M 233.55 32.75 C 240.03 43.13 243.06 55.23 244.20 67.31 C 244.00 84.23 244.21 101.16 244.09 118.09 C 243.86 125.04 236.04 130.01 229.63 127.30 C 225.55 125.71 222.86 121.49 222.95 117.13 C 222.87 100.49 223.06 83.83 222.85 67.19 C 224.12 55.17 227.06 43.09 233.55 32.75 Z" />
</g>
<g id="#26256cff">
<path fill="#26256c" opacity="1.00" d=" M 417.70 49.88 C 418.34 46.20 424.40 46.26 424.88 49.98 C 425.46 54.17 424.96 58.49 425.13 62.73 C 429.53 56.61 440.81 56.63 443.56 64.27 C 445.06 71.04 444.02 78.10 444.27 84.99 C 444.71 88.83 438.67 90.42 437.27 86.88 C 435.86 80.40 437.79 73.50 436.16 67.02 C 434.39 61.96 426.40 64.15 425.57 68.85 C 424.49 74.51 425.70 80.38 424.86 86.04 C 424.48 88.96 420.24 89.81 418.48 87.69 C 417.18 86.05 417.67 83.88 417.57 81.95 C 417.66 71.27 417.40 60.56 417.70 49.88 Z" />
<path fill="#26256c" opacity="1.00" d=" M 499.61 51.02 C 499.58 48.35 502.45 46.38 504.94 47.34 C 506.91 47.86 507.78 50.04 507.73 51.92 C 507.78 61.74 507.71 71.56 507.76 81.38 C 513.72 81.55 519.70 81.17 525.65 81.57 C 529.46 82.08 529.00 88.12 525.15 88.16 C 518.11 88.20 511.06 88.19 504.01 88.17 C 501.61 88.32 499.40 86.40 499.58 83.92 C 499.51 72.95 499.44 61.98 499.61 51.02 Z" />
<path fill="#26256c" opacity="1.00" d=" M 758.27 47.36 C 760.82 46.37 763.76 48.26 763.81 51.02 C 763.97 58.34 763.79 65.66 763.90 72.98 C 763.97 76.07 764.68 79.72 767.67 81.31 C 770.70 82.65 774.37 82.70 777.43 81.39 C 780.17 80.03 781.08 76.78 781.29 73.95 C 781.59 66.10 781.08 58.22 781.54 50.38 C 781.83 47.12 786.49 46.01 788.47 48.44 C 790.02 50.27 789.42 52.84 789.56 55.05 C 789.38 62.38 789.96 69.75 789.17 77.06 C 788.53 83.18 783.12 88.02 777.10 88.58 C 771.51 89.15 765.19 89.00 760.55 85.43 C 756.63 82.21 755.69 76.78 755.69 71.97 C 755.65 65.33 755.66 58.69 755.68 52.05 C 755.55 50.18 756.37 48.02 758.27 47.36 Z" />
<path fill="#26256c" opacity="1.00" d=" M 382.46 54.42 C 378.93 53.87 379.31 48.05 382.89 47.86 C 392.30 47.76 401.71 47.77 411.12 47.86 C 413.43 48.03 415.14 50.81 413.77 52.82 C 413.16 54.24 411.46 54.59 410.08 54.60 C 407.10 54.65 404.12 54.57 401.15 54.63 C 401.08 64.76 401.21 74.90 401.08 85.03 C 401.07 89.92 393.14 90.05 393.07 85.16 C 392.74 75.00 393.04 64.80 392.93 54.63 C 389.44 54.47 385.92 54.86 382.46 54.42 Z" />
<path fill="#26256c" opacity="1.00" d=" M 660.27 48.13 C 662.42 46.42 666.34 48.09 666.13 50.99 C 666.50 53.64 663.47 55.58 661.12 54.64 C 658.21 54.02 657.67 49.51 660.27 48.13 Z" />
<path fill="#26256c" opacity="1.00" d=" M 833.34 48.21 C 835.47 46.37 839.59 48.03 839.31 51.02 C 839.75 54.05 835.88 55.84 833.52 54.32 C 831.28 53.13 831.14 49.52 833.34 48.21 Z" />
<path fill="#26256c" opacity="1.00" d=" M 965.31 48.32 C 967.36 46.37 971.64 47.89 971.42 50.91 C 972.02 54.27 967.40 56.06 965.14 53.95 C 963.39 52.57 963.49 49.59 965.31 48.32 Z" />
<path fill="#26256c" opacity="1.00" d=" M 980.90 50.00 C 982.26 47.36 986.51 47.57 987.57 50.34 C 988.19 53.13 987.75 56.02 987.91 58.85 C 989.93 59.08 993.27 58.35 993.90 61.05 C 994.56 64.53 990.23 64.47 987.93 64.50 C 988.07 70.27 987.44 76.13 988.32 81.84 C 990.08 84.82 994.64 80.55 996.24 84.02 C 997.25 87.67 992.70 88.82 990.01 88.81 C 986.43 89.23 981.62 88.19 980.87 84.02 C 979.92 77.58 980.60 71.01 980.41 64.52 C 978.71 64.51 976.14 64.13 976.14 61.92 C 975.74 59.48 978.56 58.80 980.42 58.82 C 980.51 55.89 980.07 52.85 980.90 50.00 Z" />
<path fill="#26256c" opacity="1.00" d=" M 452.57 64.58 C 457.67 56.07 472.28 56.01 477.19 64.75 C 478.61 67.52 479.66 71.13 478.01 74.02 C 476.63 75.17 474.72 75.41 472.98 75.42 C 467.97 75.46 462.96 75.37 457.96 75.46 C 458.04 78.40 459.26 81.60 462.01 83.01 C 465.06 84.64 468.95 83.71 471.44 81.44 C 473.12 80.12 474.56 77.71 477.05 78.64 C 479.93 80.45 477.55 84.10 475.58 85.63 C 468.48 91.15 455.78 89.79 451.80 81.08 C 449.57 75.88 449.73 69.52 452.57 64.58 M 458.01 71.14 C 462.51 71.17 467.01 71.17 471.51 71.14 C 471.62 67.43 469.02 63.33 464.94 63.52 C 460.74 63.17 458.12 67.40 458.01 71.14 Z" />
<path fill="#26256c" opacity="1.00" d=" M 536.53 61.59 C 540.71 58.06 546.84 57.44 551.92 59.14 C 557.45 61.01 561.26 67.16 560.06 72.95 C 559.32 75.01 556.85 75.33 554.97 75.41 C 549.77 75.51 544.58 75.31 539.39 75.50 C 539.38 79.29 541.87 83.46 545.95 83.78 C 549.76 84.37 552.79 81.70 555.33 79.27 C 556.72 77.63 559.99 78.60 559.91 80.91 C 559.38 84.47 556.09 86.80 552.92 87.92 C 546.30 90.11 537.52 88.70 533.84 82.18 C 530.41 75.75 530.99 66.69 536.53 61.59 M 539.46 71.14 C 543.96 71.17 548.46 71.18 552.96 71.14 C 553.10 67.27 550.22 63.07 545.98 63.52 C 541.95 63.45 539.60 67.54 539.46 71.14 Z" />
<path fill="#26256c" opacity="1.00" d=" M 566.66 64.47 C 568.53 59.67 574.34 58.30 578.98 58.25 C 583.31 58.24 588.93 58.56 591.18 62.95 C 594.03 69.81 590.85 77.54 593.54 84.46 C 594.83 87.23 591.09 89.97 588.69 88.40 C 587.35 87.43 586.48 86.00 585.54 84.68 C 580.85 88.54 573.51 90.69 568.19 86.86 C 563.57 83.66 564.05 75.70 569.23 73.30 C 574.22 71.18 579.82 71.00 584.95 69.20 C 584.96 67.10 584.45 64.31 582.02 63.77 C 578.97 63.22 575.05 63.28 573.13 66.14 C 572.00 67.48 571.30 69.87 569.06 69.31 C 566.65 69.19 565.67 66.43 566.66 64.47 M 574.54 76.63 C 572.25 77.58 571.90 80.76 573.54 82.46 C 576.07 84.90 580.33 83.94 582.80 81.88 C 585.13 79.92 584.93 76.60 585.10 73.85 C 581.61 74.91 577.90 75.23 574.54 76.63 Z" />
<path fill="#26256c" opacity="1.00" d=" M 600.05 61.92 C 599.85 58.61 604.45 56.96 606.41 59.55 C 606.66 60.36 607.17 61.98 607.42 62.80 C 609.22 57.44 616.88 56.91 620.10 61.07 C 621.89 63.46 618.78 66.95 616.18 65.49 C 613.77 64.56 610.32 64.24 609.02 67.02 C 606.51 73.03 608.03 79.73 607.31 86.03 C 606.82 88.74 602.98 89.83 601.15 87.83 C 599.61 86.33 599.96 83.95 599.90 82.00 C 600.00 75.31 599.72 68.60 600.05 61.92 Z" />
<path fill="#26256c" opacity="1.00" d=" M 631.56 63.13 C 635.85 56.62 647.74 56.42 650.49 64.39 C 651.84 71.42 650.97 78.75 651.07 85.89 C 650.50 89.68 644.60 89.79 643.84 86.07 C 643.33 80.42 643.95 74.72 643.50 69.07 C 643.26 67.25 642.63 64.99 640.64 64.44 C 637.16 63.21 633.17 65.55 632.37 69.09 C 631.47 74.67 632.32 80.37 631.78 85.97 C 631.17 89.91 624.83 89.64 624.54 85.66 C 624.26 77.81 624.47 69.94 624.43 62.09 C 624.23 59.69 626.68 57.49 629.04 58.51 C 631.10 58.97 631.49 61.35 631.56 63.13 Z" />
<path fill="#26256c" opacity="1.00" d=" M 661.39 58.41 C 663.66 57.73 666.08 59.57 666.12 61.93 C 666.20 69.30 666.15 76.67 666.15 84.04 C 666.33 86.09 665.22 88.63 662.92 88.79 C 660.64 89.32 658.56 87.18 658.66 84.96 C 658.51 77.65 658.64 70.33 658.61 63.02 C 658.44 61.13 659.32 58.79 661.39 58.41 Z" />
<path fill="#26256c" opacity="1.00" d=" M 680.80 63.12 C 685.16 56.37 697.63 56.53 699.88 64.96 C 700.86 71.90 700.31 79.04 700.24 86.04 C 699.59 89.73 693.68 89.73 693.12 86.02 C 692.42 80.49 693.17 74.80 692.73 69.22 C 692.48 67.32 691.86 64.88 689.71 64.39 C 685.98 63.17 681.78 66.05 681.45 69.91 C 680.89 74.93 681.36 80.01 681.16 85.05 C 681.39 89.95 673.37 89.97 673.69 85.03 C 673.62 77.35 673.64 69.67 673.68 61.99 C 673.44 59.73 675.76 57.62 678.00 58.43 C 680.18 58.75 680.75 61.28 680.80 63.12 Z" />
<path fill="#26256c" opacity="1.00" d=" M 728.30 63.24 C 728.06 60.95 729.30 58.08 731.99 58.28 C 734.59 58.11 735.52 60.91 735.40 63.06 C 735.47 70.68 735.43 78.31 735.42 85.94 C 735.42 90.01 734.65 94.63 731.23 97.27 C 727.10 100.27 721.68 100.11 716.83 99.72 C 713.34 99.13 709.49 97.76 707.63 94.53 C 706.35 92.62 707.45 89.46 709.94 89.45 C 713.47 89.08 714.20 93.78 717.42 94.35 C 720.78 95.12 725.76 95.02 727.23 91.22 C 728.09 88.70 727.74 86.00 727.87 83.39 C 725.01 87.62 719.29 89.30 714.55 87.50 C 710.01 85.98 707.21 81.42 706.50 76.88 C 705.61 71.52 706.26 65.23 710.48 61.36 C 715.48 56.65 724.38 57.59 728.30 63.24 M 718.32 64.36 C 713.32 66.57 713.06 73.24 714.37 77.80 C 715.49 81.97 720.88 83.94 724.44 81.48 C 728.70 78.60 728.79 72.42 727.03 68.06 C 725.69 64.67 721.67 63.21 718.32 64.36 Z" />
<path fill="#26256c" opacity="1.00" d=" M 804.77 63.10 C 807.62 59.28 812.66 57.39 817.30 58.66 C 821.57 59.55 824.45 63.81 824.31 68.07 C 824.35 74.06 824.54 80.08 824.21 86.06 C 823.55 89.72 817.69 89.73 817.10 86.06 C 816.43 80.29 817.31 74.38 816.61 68.58 C 816.37 66.59 815.22 64.35 812.97 64.24 C 809.33 63.45 805.67 66.43 805.39 70.06 C 804.90 75.08 805.31 80.13 805.10 85.15 C 805.06 87.34 803.06 89.19 800.86 88.84 C 798.57 88.60 797.38 86.13 797.60 84.05 C 797.61 76.71 797.55 69.37 797.63 62.04 C 797.40 59.74 799.68 57.67 801.95 58.42 C 804.14 58.76 804.74 61.23 804.77 63.10 Z" />
<path fill="#26256c" opacity="1.00" d=" M 834.37 58.46 C 836.68 57.64 839.33 59.52 839.30 61.99 C 839.28 70.00 839.53 78.04 839.16 86.04 C 838.41 89.78 832.52 89.69 831.91 85.90 C 831.65 78.26 831.87 70.60 831.80 62.95 C 831.59 61.13 832.48 58.98 834.37 58.46 Z" />
<path fill="#26256c" opacity="1.00" d=" M 844.96 62.99 C 843.01 59.29 849.54 56.26 851.16 59.97 C 853.81 66.54 855.99 73.29 858.39 79.95 C 861.00 73.34 863.16 66.55 865.92 59.99 C 867.32 56.72 872.87 58.62 872.19 62.05 C 869.27 70.03 865.95 77.87 862.74 85.74 C 861.73 89.37 856.15 90.01 854.52 86.57 C 851.11 78.81 847.93 70.93 844.96 62.99 Z" />
<path fill="#26256c" opacity="1.00" d=" M 876.86 66.12 C 880.80 56.70 895.53 55.49 901.48 63.51 C 903.37 66.20 904.44 69.71 903.63 72.98 C 903.06 74.94 900.63 75.25 898.92 75.39 C 893.63 75.52 888.34 75.33 883.06 75.48 C 883.15 78.16 884.11 81.01 886.40 82.59 C 889.45 84.75 893.80 83.92 896.46 81.49 C 898.16 80.20 899.53 77.79 902.03 78.59 C 904.62 79.87 903.25 83.13 901.68 84.67 C 896.69 89.70 888.23 89.99 882.16 86.86 C 875.13 82.82 873.88 73.08 876.86 66.12 M 883.11 71.13 C 887.61 71.19 892.13 71.16 896.64 71.14 C 896.66 67.43 894.10 63.31 890.00 63.51 C 885.82 63.19 883.20 67.40 883.11 71.13 Z" />
<path fill="#26256c" opacity="1.00" d=" M 910.18 62.92 C 910.01 60.69 911.40 58.03 913.97 58.28 C 916.48 58.12 917.35 60.76 917.54 62.80 C 919.50 57.59 926.65 56.94 930.20 60.80 C 932.09 63.17 929.27 66.94 926.50 65.51 C 924.03 64.52 920.30 64.23 919.16 67.23 C 916.60 73.29 918.43 80.09 917.38 86.39 C 916.39 89.95 910.56 89.45 910.29 85.72 C 910.00 78.14 910.22 70.52 910.18 62.92 Z" />
<path fill="#26256c" opacity="1.00" d=" M 966.44 58.49 C 968.73 57.62 971.51 59.47 971.41 61.96 C 971.49 69.64 971.50 77.32 971.40 85.00 C 971.51 87.24 969.32 89.32 967.07 88.78 C 964.77 88.61 963.79 86.04 963.88 84.04 C 963.87 77.02 963.87 69.99 963.88 62.96 C 963.85 61.20 964.52 58.99 966.44 58.49 Z" />
<path fill="#26256c" opacity="1.00" d=" M 996.78 62.93 C 995.33 59.24 1001.35 56.37 1003.17 59.93 C 1006.01 66.69 1007.98 73.80 1010.55 80.68 C 1012.53 74.96 1014.54 69.26 1016.53 63.56 C 1017.15 61.91 1017.62 60.11 1018.88 58.81 C 1020.65 57.69 1022.77 58.55 1024.00 60.05 L 1024.00 62.47 C 1020.18 73.29 1016.11 84.07 1011.69 94.67 C 1009.47 100.22 1002.46 100.82 997.48 99.29 C 995.58 98.65 995.13 95.91 996.55 94.57 C 998.68 92.97 1001.45 95.14 1003.66 93.66 C 1005.22 92.20 1005.87 90.03 1006.65 88.08 C 1003.44 79.67 999.93 71.36 996.78 62.93 Z" />
<path fill="#26256c" opacity="1.00" d=" M 938.20 59.24 C 941.63 57.97 945.47 58.10 949.01 58.87 C 952.13 59.64 955.52 61.52 956.25 64.92 C 956.38 67.24 954.02 68.65 951.93 68.14 C 949.34 66.94 948.28 63.43 945.16 63.20 C 942.92 62.89 939.52 63.37 939.13 66.11 C 939.44 68.87 942.84 69.20 944.98 69.87 C 949.51 71.09 955.34 72.07 957.33 76.97 C 958.91 82.21 954.83 87.59 949.61 88.32 C 943.62 89.53 935.27 89.06 932.29 82.78 C 930.11 79.71 934.87 75.71 937.24 78.80 C 938.87 82.08 942.18 84.62 946.03 83.89 C 948.82 84.00 951.75 80.88 949.49 78.33 C 944.66 75.13 937.76 75.88 933.70 71.29 C 930.20 67.12 933.30 60.59 938.20 59.24 Z" />
</g>
</svg>
